# xmcd CD database file
# Copyright (C) 1993-1998 Ti Kan
# 
# Track frame offsets:
#     150
#     11885
#     23345
#     37345
#     51500
#     65627
#     82717
#     96692
#     109957
#     120260
#     135830
#     148775
# 
# Disc length: 2200 seconds
# 
# Revision: 1
# Processed by: cddbd v1.4b41PL1 Copyright (c) Steve Scherf et al.
# Submitted via: DiscPlay 4.0.4
# 
DISCID=a408960c
DTITLE=Johnny Rivers - Johnny Rivers - 12 Hits
DYEAR=1900
DGENRE=
TTITLE0=Memphis
TTITLE1=Midnight Special
TTITLE2=Muddy Water
TTITLE3=Poor Side of Town
TTITLE4=Baby, I Need Your Lovin'
TTITLE5=Where Have All The Flowers Gone?
TTITLE6=Secret Agent Man
TTITLE7=The Tracks of My Tears
TTITLE8=Maybelline
TTITLE9=Rockin' Pneumonia - Boogie Woogie Flu
TTITLE10=The Seventh Son
TTITLE11=Summer Rain
EXTD=
EXTT0=
EXTT1=
EXTT2=
EXTT3=
EXTT4=
EXTT5=
EXTT6=
EXTT7=
EXTT8=
EXTT9=
EXTT10=
EXTT11=
PLAYORDER=
